<svg xmlns="http://www.w3.org/2000/svg" xmlns:xlink="http://www.w3.org/1999/xlink" width="1063" zoomAndPan="magnify" viewBox="0 0 797.25 98.249997" height="131" preserveAspectRatio="xMidYMid meet" version="1.0"><defs><g/><clipPath id="c9bd4088e9"><path d="M 2.648438 0 L 793.859375 0 L 793.859375 97.503906 L 2.648438 97.503906 Z M 2.648438 0 " clip-rule="nonzero"/></clipPath><clipPath id="078fb0ed9d"><path d="M 603 0 L 793.859375 0 L 793.859375 97.503906 L 603 97.503906 Z M 603 0 " clip-rule="nonzero"/></clipPath><clipPath id="9c7b9df4ee"><path d="M 627 9 L 793.859375 9 L 793.859375 97.503906 L 627 97.503906 Z M 627 9 " clip-rule="nonzero"/></clipPath><clipPath id="58df345ea7"><path d="M 608.511719 29.507812 L 799.734375 -73.792969 L 891.714844 96.476562 L 700.492188 199.777344 Z M 608.511719 29.507812 " clip-rule="nonzero"/></clipPath><clipPath id="8aa1a39fd3"><path d="M 608.511719 29.507812 L 799.734375 -73.792969 L 891.714844 96.476562 L 700.492188 199.777344 Z M 608.511719 29.507812 " clip-rule="nonzero"/></clipPath><clipPath id="eda4cddd47"><path d="M 0.351562 0.296875 L 100 0.296875 L 100 30.785156 L 0.351562 30.785156 Z M 0.351562 0.296875 " clip-rule="nonzero"/></clipPath><clipPath id="bfba7a33f9"><rect x="0" width="101" y="0" height="31"/></clipPath><clipPath id="2b46c8c7b9"><path d="M 251 13 L 546 13 L 546 97.503906 L 251 97.503906 Z M 251 13 " clip-rule="nonzero"/></clipPath><clipPath id="cb4694fea0"><rect x="0" width="295" y="0" height="85"/></clipPath><clipPath id="dcbc4b6c9e"><path d="M 2.648438 2 L 164 2 L 164 97.503906 L 2.648438 97.503906 Z M 2.648438 2 " clip-rule="nonzero"/></clipPath><clipPath id="ab5dbbad93"><rect x="0" width="125" y="0" height="40"/></clipPath><clipPath id="5e9b8be50d"><path d="M 2.648438 51 L 54 51 L 54 97.503906 L 2.648438 97.503906 Z M 2.648438 51 " clip-rule="nonzero"/></clipPath></defs><g clip-path="url(#c9bd4088e9)"><path fill="#ffffff" d="M 2.648438 0 L 793.859375 0 L 793.859375 97.503906 L 2.648438 97.503906 Z M 2.648438 0 " fill-opacity="1" fill-rule="nonzero"/><path fill="#ddd2eb" d="M 2.648438 0 L 793.859375 0 L 793.859375 97.503906 L 2.648438 97.503906 Z M 2.648438 0 " fill-opacity="1" fill-rule="nonzero"/></g><g clip-path="url(#078fb0ed9d)"><path fill="#cdb4ea" d="M 605.492188 48.804688 C 611.449219 75.160156 642.796875 102.675781 662.957031 121.707031 C 685.613281 143.097656 711.015625 157.730469 739.996094 171.265625 C 801.570312 200.027344 888.28125 179.355469 908.800781 119.269531 C 930.636719 55.351562 899.027344 -1.914062 844.878906 -43.871094 C 761.796875 -108.25 585.132812 -41.253906 605.492188 48.804688 " fill-opacity="1" fill-rule="nonzero"/></g><g clip-path="url(#9c7b9df4ee)"><g clip-path="url(#58df345ea7)"><g clip-path="url(#8aa1a39fd3)"><path fill="#83bf98" d="M 801.441406 97.238281 C 773.332031 115.285156 748.710938 67.140625 728.15625 57.832031 C 710.242188 49.71875 692.894531 55.484375 674 52.835938 C 659.515625 50.800781 650.433594 44.855469 641.171875 33.914062 C 636.71875 28.65625 632.890625 21.097656 627.824219 19.089844 C 659.734375 26.933594 691.648438 -3.378906 722.5625 16.726562 C 737.601562 26.511719 746.050781 34.332031 764.175781 36.273438 C 781.699219 38.15625 787.378906 43.804688 792.929688 60.28125 C 796.921875 72.128906 801.882812 84.8125 801.441406 97.238281 " fill-opacity="1" fill-rule="nonzero"/></g></g></g><g transform="matrix(1, 0, 0, 1, 633, 34)"><g clip-path="url(#bfba7a33f9)"><g clip-path="url(#eda4cddd47)"><path fill="#ddd2eb" d="M 11.214844 0.871094 L 89.164062 0.871094 C 91.933594 0.871094 94.589844 1.972656 96.550781 3.929688 C 98.507812 5.886719 99.609375 8.546875 99.609375 11.316406 L 99.609375 20.269531 C 99.609375 23.039062 98.507812 25.695312 96.550781 27.652344 C 94.589844 29.613281 91.933594 30.710938 89.164062 30.710938 L 11.214844 30.710938 C 5.445312 30.710938 0.769531 26.035156 0.769531 20.269531 L 0.769531 11.316406 C 0.769531 5.546875 5.445312 0.871094 11.214844 0.871094 Z M 11.214844 0.871094 " fill-opacity="1" fill-rule="nonzero"/></g><g fill="#000000" fill-opacity="1"><g transform="translate(12.194482, 19.583558)"><g><path d="M 4.234375 0.171875 C 3.503906 0.171875 2.867188 0.0390625 2.328125 -0.21875 C 1.785156 -0.488281 1.363281 -0.863281 1.0625 -1.34375 C 0.769531 -1.820312 0.625 -2.375 0.625 -3 L 1.890625 -3 C 1.890625 -2.601562 1.976562 -2.238281 2.15625 -1.90625 C 2.332031 -1.582031 2.59375 -1.320312 2.9375 -1.125 C 3.289062 -0.9375 3.722656 -0.84375 4.234375 -0.84375 C 4.910156 -0.84375 5.4375 -1.003906 5.8125 -1.328125 C 6.1875 -1.648438 6.375 -2.054688 6.375 -2.546875 C 6.375 -2.941406 6.285156 -3.257812 6.109375 -3.5 C 5.941406 -3.75 5.710938 -3.945312 5.421875 -4.09375 C 5.128906 -4.25 4.796875 -4.382812 4.421875 -4.5 C 4.046875 -4.613281 3.648438 -4.742188 3.234375 -4.890625 C 2.460938 -5.148438 1.890625 -5.476562 1.515625 -5.875 C 1.148438 -6.269531 0.96875 -6.785156 0.96875 -7.421875 C 0.957031 -7.953125 1.082031 -8.425781 1.34375 -8.84375 C 1.601562 -9.257812 1.96875 -9.582031 2.4375 -9.8125 C 2.90625 -10.050781 3.460938 -10.171875 4.109375 -10.171875 C 4.742188 -10.171875 5.296875 -10.050781 5.765625 -9.8125 C 6.242188 -9.570312 6.613281 -9.242188 6.875 -8.828125 C 7.132812 -8.410156 7.269531 -7.929688 7.28125 -7.390625 L 6.03125 -7.390625 C 6.03125 -7.671875 5.957031 -7.945312 5.8125 -8.21875 C 5.664062 -8.488281 5.445312 -8.707031 5.15625 -8.875 C 4.875 -9.050781 4.507812 -9.140625 4.0625 -9.140625 C 3.519531 -9.148438 3.078125 -9.007812 2.734375 -8.71875 C 2.390625 -8.4375 2.21875 -8.046875 2.21875 -7.546875 C 2.21875 -7.109375 2.335938 -6.773438 2.578125 -6.546875 C 2.816406 -6.328125 3.15625 -6.140625 3.59375 -5.984375 C 4.03125 -5.835938 4.535156 -5.671875 5.109375 -5.484375 C 5.585938 -5.316406 6.015625 -5.117188 6.390625 -4.890625 C 6.773438 -4.660156 7.070312 -4.363281 7.28125 -4 C 7.5 -3.632812 7.609375 -3.171875 7.609375 -2.609375 C 7.609375 -2.140625 7.484375 -1.691406 7.234375 -1.265625 C 6.992188 -0.835938 6.625 -0.488281 6.125 -0.21875 C 5.625 0.0390625 4.992188 0.171875 4.234375 0.171875 Z M 4.234375 0.171875 "/></g></g></g><g fill="#000000" fill-opacity="1"><g transform="translate(20.442766, 19.583558)"><g><path d="M 1.0625 0 L 1.0625 -10 L 2.25 -10 L 2.25 -5.578125 L 7.4375 -5.578125 L 7.4375 -10 L 8.640625 -10 L 8.640625 0 L 7.4375 0 L 7.4375 -4.59375 L 2.25 -4.59375 L 2.25 0 Z M 1.0625 0 "/></g></g></g><g fill="#000000" fill-opacity="1"><g transform="translate(30.132366, 19.583558)"><g><path d="M 5.59375 0.171875 C 4.613281 0.171875 3.753906 -0.0390625 3.015625 -0.46875 C 2.273438 -0.90625 1.695312 -1.515625 1.28125 -2.296875 C 0.875 -3.078125 0.671875 -3.976562 0.671875 -5 C 0.671875 -6.019531 0.875 -6.914062 1.28125 -7.6875 C 1.695312 -8.46875 2.273438 -9.078125 3.015625 -9.515625 C 3.753906 -9.953125 4.613281 -10.171875 5.59375 -10.171875 C 6.582031 -10.171875 7.445312 -9.953125 8.1875 -9.515625 C 8.925781 -9.078125 9.5 -8.46875 9.90625 -7.6875 C 10.320312 -6.914062 10.53125 -6.019531 10.53125 -5 C 10.53125 -3.976562 10.320312 -3.078125 9.90625 -2.296875 C 9.5 -1.515625 8.925781 -0.90625 8.1875 -0.46875 C 7.445312 -0.0390625 6.582031 0.171875 5.59375 0.171875 Z M 5.59375 -0.890625 C 6.332031 -0.890625 6.976562 -1.050781 7.53125 -1.375 C 8.09375 -1.707031 8.523438 -2.179688 8.828125 -2.796875 C 9.140625 -3.410156 9.296875 -4.144531 9.296875 -5 C 9.296875 -5.851562 9.140625 -6.582031 8.828125 -7.1875 C 8.523438 -7.800781 8.09375 -8.269531 7.53125 -8.59375 C 6.976562 -8.925781 6.332031 -9.09375 5.59375 -9.09375 C 4.863281 -9.09375 4.21875 -8.925781 3.65625 -8.59375 C 3.101562 -8.269531 2.671875 -7.800781 2.359375 -7.1875 C 2.054688 -6.582031 1.90625 -5.851562 1.90625 -5 C 1.90625 -4.144531 2.054688 -3.410156 2.359375 -2.796875 C 2.671875 -2.179688 3.101562 -1.707031 3.65625 -1.375 C 4.21875 -1.050781 4.863281 -0.890625 5.59375 -0.890625 Z M 5.59375 -0.890625 "/></g></g></g><g fill="#000000" fill-opacity="1"><g transform="translate(41.320365, 19.583558)"><g><path d="M 1.0625 0 L 1.0625 -10 L 4.34375 -10 C 5.125 -10 5.765625 -9.867188 6.265625 -9.609375 C 6.773438 -9.347656 7.148438 -9 7.390625 -8.5625 C 7.628906 -8.125 7.75 -7.628906 7.75 -7.078125 C 7.75 -6.535156 7.628906 -6.046875 7.390625 -5.609375 C 7.160156 -5.171875 6.789062 -4.820312 6.28125 -4.5625 C 5.78125 -4.300781 5.132812 -4.171875 4.34375 -4.171875 L 2.25 -4.171875 L 2.25 0 Z M 2.25 -5.1875 L 4.3125 -5.1875 C 5.113281 -5.1875 5.679688 -5.351562 6.015625 -5.6875 C 6.359375 -6.03125 6.53125 -6.492188 6.53125 -7.078125 C 6.53125 -7.679688 6.359375 -8.148438 6.015625 -8.484375 C 5.679688 -8.828125 5.113281 -9 4.3125 -9 L 2.25 -9 Z M 2.25 -5.1875 "/></g></g></g><g fill="#000000" fill-opacity="1"><g transform="translate(49.582932, 19.583558)"><g/></g></g><g fill="#000000" fill-opacity="1"><g transform="translate(53.364587, 19.583558)"><g><path d="M 1.0625 0 L 1.0625 -10 L 2.25 -10 L 7.578125 -1.984375 L 7.578125 -10 L 8.78125 -10 L 8.78125 0 L 7.578125 0 L 2.25 -8.015625 L 2.25 0 Z M 1.0625 0 "/></g></g></g><g fill="#000000" fill-opacity="1"><g transform="translate(63.196885, 19.583558)"><g><path d="M 5.59375 0.171875 C 4.613281 0.171875 3.753906 -0.0390625 3.015625 -0.46875 C 2.273438 -0.90625 1.695312 -1.515625 1.28125 -2.296875 C 0.875 -3.078125 0.671875 -3.976562 0.671875 -5 C 0.671875 -6.019531 0.875 -6.914062 1.28125 -7.6875 C 1.695312 -8.46875 2.273438 -9.078125 3.015625 -9.515625 C 3.753906 -9.953125 4.613281 -10.171875 5.59375 -10.171875 C 6.582031 -10.171875 7.445312 -9.953125 8.1875 -9.515625 C 8.925781 -9.078125 9.5 -8.46875 9.90625 -7.6875 C 10.320312 -6.914062 10.53125 -6.019531 10.53125 -5 C 10.53125 -3.976562 10.320312 -3.078125 9.90625 -2.296875 C 9.5 -1.515625 8.925781 -0.90625 8.1875 -0.46875 C 7.445312 -0.0390625 6.582031 0.171875 5.59375 0.171875 Z M 5.59375 -0.890625 C 6.332031 -0.890625 6.976562 -1.050781 7.53125 -1.375 C 8.09375 -1.707031 8.523438 -2.179688 8.828125 -2.796875 C 9.140625 -3.410156 9.296875 -4.144531 9.296875 -5 C 9.296875 -5.851562 9.140625 -6.582031 8.828125 -7.1875 C 8.523438 -7.800781 8.09375 -8.269531 7.53125 -8.59375 C 6.976562 -8.925781 6.332031 -9.09375 5.59375 -9.09375 C 4.863281 -9.09375 4.21875 -8.925781 3.65625 -8.59375 C 3.101562 -8.269531 2.671875 -7.800781 2.359375 -7.1875 C 2.054688 -6.582031 1.90625 -5.851562 1.90625 -5 C 1.90625 -4.144531 2.054688 -3.410156 2.359375 -2.796875 C 2.671875 -2.179688 3.101562 -1.707031 3.65625 -1.375 C 4.21875 -1.050781 4.863281 -0.890625 5.59375 -0.890625 Z M 5.59375 -0.890625 "/></g></g></g><g fill="#000000" fill-opacity="1"><g transform="translate(74.384884, 19.583558)"><g><path d="M 3.109375 0.015625 L 0.375 -10 L 1.65625 -10 L 3.8125 -1.40625 L 6.265625 -10 L 7.59375 -10 L 9.984375 -1.40625 L 12.171875 -10 L 13.453125 -10 L 10.65625 0 L 9.28125 0 L 6.890625 -8.25 L 4.453125 0 Z M 3.109375 0.015625 "/></g></g></g></g></g><g clip-path="url(#2b46c8c7b9)"><g transform="matrix(1, 0, 0, 1, 251, 13)"><g clip-path="url(#cb4694fea0)"><g fill="#000000" fill-opacity="1"><g transform="translate(0.886167, 65.725379)"><g><path d="M 0.875 -61.1875 L 28.84375 -61.1875 L 28.84375 -43.09375 L 28.0625 -43.09375 C 28.0625 -43.09375 28.046875 -43.644531 28.015625 -44.75 C 27.984375 -45.851562 27.863281 -47.234375 27.65625 -48.890625 C 27.457031 -50.554688 27.140625 -52.207031 26.703125 -53.84375 C 26.265625 -55.476562 25.632812 -56.847656 24.8125 -57.953125 C 24 -59.054688 22.953125 -59.609375 21.671875 -59.609375 L 11.96875 -59.609375 L 11.96875 -39.25 L 18.96875 -39.25 C 19.78125 -39.25 20.429688 -39.640625 20.921875 -40.421875 C 21.421875 -41.210938 21.816406 -42.203125 22.109375 -43.390625 C 22.398438 -44.585938 22.601562 -45.769531 22.71875 -46.9375 C 22.84375 -48.101562 22.914062 -49.078125 22.9375 -49.859375 C 22.96875 -50.648438 22.984375 -51.046875 22.984375 -51.046875 L 23.78125 -51.046875 L 23.78125 -25.875 L 22.984375 -25.875 C 22.984375 -25.875 22.984375 -26.265625 22.984375 -27.046875 C 22.984375 -27.835938 22.9375 -28.828125 22.84375 -30.015625 C 22.757812 -31.210938 22.585938 -32.394531 22.328125 -33.5625 C 22.066406 -34.726562 21.6875 -35.703125 21.1875 -36.484375 C 20.695312 -37.273438 20.015625 -37.671875 19.140625 -37.671875 L 11.96875 -37.671875 L 11.96875 -8.484375 C 11.96875 -6.203125 12.359375 -4.519531 13.140625 -3.4375 C 13.929688 -2.363281 14.71875 -1.664062 15.5 -1.34375 C 16.289062 -1.03125 16.6875 -0.875 16.6875 -0.875 L 16.6875 0 L 0.875 0 L 0.875 -0.875 C 0.875 -0.875 1.265625 -1.03125 2.046875 -1.34375 C 2.835938 -1.664062 3.609375 -2.363281 4.359375 -3.4375 C 5.117188 -4.519531 5.5 -6.203125 5.5 -8.484375 L 5.5 -52.703125 C 5.5 -55.035156 5.117188 -56.738281 4.359375 -57.8125 C 3.609375 -58.894531 2.835938 -59.582031 2.046875 -59.875 C 1.265625 -60.164062 0.875 -60.3125 0.875 -60.3125 Z M 0.875 -61.1875 "/></g></g></g><g fill="#000000" fill-opacity="1"><g transform="translate(30.689404, 65.725379)"><g><path d="M 0.875 0 L 1.046875 -0.875 C 1.046875 -0.875 1.453125 -1.046875 2.265625 -1.390625 C 3.085938 -1.742188 3.976562 -2.457031 4.9375 -3.53125 C 5.894531 -4.613281 6.519531 -6.265625 6.8125 -8.484375 L 16.515625 -52.703125 C 16.921875 -55.097656 16.726562 -56.832031 15.9375 -57.90625 C 15.15625 -58.988281 14.445312 -59.671875 13.8125 -59.953125 C 13.519531 -60.078125 13.285156 -60.164062 13.109375 -60.21875 C 12.929688 -60.28125 12.84375 -60.3125 12.84375 -60.3125 L 12.671875 -61.1875 L 28.40625 -61.1875 L 28.578125 -60.3125 C 28.578125 -60.3125 28.375 -60.222656 27.96875 -60.046875 C 27.5625 -59.867188 27.109375 -59.53125 26.609375 -59.03125 C 26.117188 -58.539062 25.753906 -57.785156 25.515625 -56.765625 C 25.285156 -55.742188 25.347656 -54.390625 25.703125 -52.703125 L 35.75 -8.484375 C 36.269531 -6.265625 37.039062 -4.613281 38.0625 -3.53125 C 39.082031 -2.457031 40.015625 -1.742188 40.859375 -1.390625 C 41.703125 -1.046875 42.125 -0.875 42.125 -0.875 L 42.296875 0 L 26.921875 0 L 26.75 -0.875 C 26.75 -0.875 26.96875 -0.960938 27.40625 -1.140625 C 27.84375 -1.316406 28.304688 -1.664062 28.796875 -2.1875 C 29.296875 -2.707031 29.660156 -3.476562 29.890625 -4.5 C 30.128906 -5.519531 30.039062 -6.847656 29.625 -8.484375 L 27.09375 -20.796875 L 11.453125 -20.796875 L 8.828125 -8.484375 C 8.472656 -6.265625 8.601562 -4.613281 9.21875 -3.53125 C 9.832031 -2.457031 10.503906 -1.742188 11.234375 -1.390625 C 11.960938 -1.046875 12.328125 -0.875 12.328125 -0.875 L 12.15625 0 Z M 11.96875 -22.71875 L 26.484375 -22.640625 L 18.703125 -55.421875 Z M 11.96875 -22.71875 "/></g></g></g><g fill="#000000" fill-opacity="1"><g transform="translate(73.952176, 65.725379)"><g><path d="M 28.140625 -18.09375 L 28.9375 -18.09375 L 28.9375 0 L 0.96875 0 L 0.96875 -0.875 C 0.96875 -0.875 1.359375 -1.03125 2.140625 -1.34375 C 2.929688 -1.664062 3.703125 -2.363281 4.453125 -3.4375 C 5.210938 -4.519531 5.59375 -6.203125 5.59375 -8.484375 L 5.59375 -52.703125 C 5.59375 -54.921875 5.210938 -56.566406 4.453125 -57.640625 C 3.703125 -58.722656 2.929688 -59.4375 2.140625 -59.78125 C 1.359375 -60.132812 0.96875 -60.3125 0.96875 -60.3125 L 0.96875 -61.1875 L 16.609375 -61.1875 L 16.609375 -60.3125 C 16.609375 -60.3125 16.226562 -60.117188 15.46875 -59.734375 C 14.707031 -59.359375 13.945312 -58.675781 13.1875 -57.6875 C 12.4375 -56.695312 12.0625 -55.269531 12.0625 -53.40625 L 12.0625 -1.578125 L 21.765625 -1.578125 C 23.046875 -1.578125 24.09375 -2.128906 24.90625 -3.234375 C 25.726562 -4.335938 26.359375 -5.707031 26.796875 -7.34375 C 27.234375 -8.976562 27.550781 -10.625 27.75 -12.28125 C 27.957031 -13.9375 28.070312 -15.316406 28.09375 -16.421875 C 28.125 -17.535156 28.140625 -18.09375 28.140625 -18.09375 Z M 28.140625 -18.09375 "/></g></g></g><g fill="#000000" fill-opacity="1"><g transform="translate(103.842814, 65.725379)"><g><path d="M 28.140625 -18.09375 L 28.9375 -18.09375 L 28.9375 0 L 0.96875 0 L 0.96875 -0.875 C 0.96875 -0.875 1.359375 -1.03125 2.140625 -1.34375 C 2.929688 -1.664062 3.703125 -2.363281 4.453125 -3.4375 C 5.210938 -4.519531 5.59375 -6.203125 5.59375 -8.484375 L 5.59375 -52.703125 C 5.59375 -54.921875 5.210938 -56.566406 4.453125 -57.640625 C 3.703125 -58.722656 2.929688 -59.4375 2.140625 -59.78125 C 1.359375 -60.132812 0.96875 -60.3125 0.96875 -60.3125 L 0.96875 -61.1875 L 16.609375 -61.1875 L 16.609375 -60.3125 C 16.609375 -60.3125 16.226562 -60.117188 15.46875 -59.734375 C 14.707031 -59.359375 13.945312 -58.675781 13.1875 -57.6875 C 12.4375 -56.695312 12.0625 -55.269531 12.0625 -53.40625 L 12.0625 -1.578125 L 21.765625 -1.578125 C 23.046875 -1.578125 24.09375 -2.128906 24.90625 -3.234375 C 25.726562 -4.335938 26.359375 -5.707031 26.796875 -7.34375 C 27.234375 -8.976562 27.550781 -10.625 27.75 -12.28125 C 27.957031 -13.9375 28.070312 -15.316406 28.09375 -16.421875 C 28.125 -17.535156 28.140625 -18.09375 28.140625 -18.09375 Z M 28.140625 -18.09375 "/></g></g></g><g fill="#000000" fill-opacity="1"><g transform="translate(133.733452, 65.725379)"><g/></g></g><g fill="#000000" fill-opacity="1"><g transform="translate(152.34955, 65.725379)"><g><path d="M 12.765625 -40.90625 L 24.734375 -32.078125 C 27.878906 -29.984375 30.238281 -27.519531 31.8125 -24.6875 C 33.382812 -21.863281 34.210938 -18.960938 34.296875 -15.984375 C 34.390625 -13.015625 33.765625 -10.265625 32.421875 -7.734375 C 31.085938 -5.203125 29.050781 -3.148438 26.3125 -1.578125 C 23.570312 -0.00390625 20.160156 0.78125 16.078125 0.78125 C 13.398438 0.78125 11.039062 0.140625 9 -1.140625 C 6.957031 -2.421875 5.269531 -3.816406 3.9375 -5.328125 C 3.9375 -5.328125 3.878906 -5.382812 3.765625 -5.5 C 3.523438 -5.738281 3.316406 -5.859375 3.140625 -5.859375 C 2.796875 -5.859375 2.535156 -5.566406 2.359375 -4.984375 C 2.179688 -4.398438 2.035156 -3.710938 1.921875 -2.921875 C 1.804688 -2.140625 1.734375 -1.457031 1.703125 -0.875 C 1.671875 -0.289062 1.65625 0 1.65625 0 L 0.96875 0 L 0.875 -23.859375 L 2.265625 -23.859375 C 2.265625 -23.859375 2.28125 -23.304688 2.3125 -22.203125 C 2.34375 -21.097656 2.472656 -19.671875 2.703125 -17.921875 C 2.941406 -16.171875 3.351562 -14.316406 3.9375 -12.359375 C 4.519531 -10.410156 5.304688 -8.5625 6.296875 -6.8125 C 7.285156 -5.070312 8.582031 -3.644531 10.1875 -2.53125 C 11.789062 -1.425781 13.753906 -0.875 16.078125 -0.875 C 18.054688 -0.875 19.90625 -1.320312 21.625 -2.21875 C 23.351562 -3.125 24.738281 -4.550781 25.78125 -6.5 C 26.832031 -8.457031 27.359375 -11.039062 27.359375 -14.25 C 27.359375 -17.101562 26.832031 -19.375 25.78125 -21.0625 C 24.738281 -22.75 23.5 -24.101562 22.0625 -25.125 C 20.632812 -26.144531 19.34375 -27.0625 18.1875 -27.875 L 9.4375 -34.4375 C 7.050781 -36.007812 5.257812 -37.945312 4.0625 -40.25 C 2.863281 -42.550781 2.25 -44.9375 2.21875 -47.40625 C 2.195312 -49.882812 2.753906 -52.203125 3.890625 -54.359375 C 5.023438 -56.515625 6.742188 -58.265625 9.046875 -59.609375 C 11.347656 -60.953125 14.25 -61.625 17.75 -61.625 C 20.476562 -61.625 22.816406 -60.992188 24.765625 -59.734375 C 26.722656 -58.484375 28.316406 -57.101562 29.546875 -55.59375 C 29.835938 -55.238281 30.097656 -55.0625 30.328125 -55.0625 C 30.679688 -55.0625 30.941406 -55.351562 31.109375 -55.9375 C 31.285156 -56.519531 31.429688 -57.203125 31.546875 -57.984375 C 31.671875 -58.773438 31.742188 -59.460938 31.765625 -60.046875 C 31.796875 -60.628906 31.8125 -60.921875 31.8125 -60.921875 L 32.515625 -60.921875 L 32.515625 -36.96875 L 31.203125 -36.96875 C 31.203125 -36.96875 31.1875 -37.519531 31.15625 -38.625 C 31.125 -39.738281 30.992188 -41.164062 30.765625 -42.90625 C 30.535156 -44.65625 30.15625 -46.503906 29.625 -48.453125 C 29.101562 -50.410156 28.347656 -52.265625 27.359375 -54.015625 C 26.367188 -55.765625 25.085938 -57.191406 23.515625 -58.296875 C 21.941406 -59.398438 20.019531 -59.953125 17.75 -59.953125 C 16.113281 -59.953125 14.609375 -59.484375 13.234375 -58.546875 C 11.867188 -57.617188 10.765625 -56.367188 9.921875 -54.796875 C 9.078125 -53.222656 8.65625 -51.476562 8.65625 -49.5625 C 8.65625 -47.226562 9.101562 -45.375 10 -44 C 10.90625 -42.632812 11.828125 -41.601562 12.765625 -40.90625 Z M 12.765625 -40.90625 "/></g></g></g><g fill="#000000" fill-opacity="1"><g transform="translate(187.571555, 65.725379)"><g><path d="M 0.875 0 L 1.046875 -0.875 C 1.046875 -0.875 1.453125 -1.046875 2.265625 -1.390625 C 3.085938 -1.742188 3.976562 -2.457031 4.9375 -3.53125 C 5.894531 -4.613281 6.519531 -6.265625 6.8125 -8.484375 L 16.515625 -52.703125 C 16.921875 -55.097656 16.726562 -56.832031 15.9375 -57.90625 C 15.15625 -58.988281 14.445312 -59.671875 13.8125 -59.953125 C 13.519531 -60.078125 13.285156 -60.164062 13.109375 -60.21875 C 12.929688 -60.28125 12.84375 -60.3125 12.84375 -60.3125 L 12.671875 -61.1875 L 28.40625 -61.1875 L 28.578125 -60.3125 C 28.578125 -60.3125 28.375 -60.222656 27.96875 -60.046875 C 27.5625 -59.867188 27.109375 -59.53125 26.609375 -59.03125 C 26.117188 -58.539062 25.753906 -57.785156 25.515625 -56.765625 C 25.285156 -55.742188 25.347656 -54.390625 25.703125 -52.703125 L 35.75 -8.484375 C 36.269531 -6.265625 37.039062 -4.613281 38.0625 -3.53125 C 39.082031 -2.457031 40.015625 -1.742188 40.859375 -1.390625 C 41.703125 -1.046875 42.125 -0.875 42.125 -0.875 L 42.296875 0 L 26.921875 0 L 26.75 -0.875 C 26.75 -0.875 26.96875 -0.960938 27.40625 -1.140625 C 27.84375 -1.316406 28.304688 -1.664062 28.796875 -2.1875 C 29.296875 -2.707031 29.660156 -3.476562 29.890625 -4.5 C 30.128906 -5.519531 30.039062 -6.847656 29.625 -8.484375 L 27.09375 -20.796875 L 11.453125 -20.796875 L 8.828125 -8.484375 C 8.472656 -6.265625 8.601562 -4.613281 9.21875 -3.53125 C 9.832031 -2.457031 10.503906 -1.742188 11.234375 -1.390625 C 11.960938 -1.046875 12.328125 -0.875 12.328125 -0.875 L 12.15625 0 Z M 11.96875 -22.71875 L 26.484375 -22.640625 L 18.703125 -55.421875 Z M 11.96875 -22.71875 "/></g></g></g><g fill="#000000" fill-opacity="1"><g transform="translate(230.834327, 65.725379)"><g><path d="M 28.140625 -18.09375 L 28.9375 -18.09375 L 28.9375 0 L 0.96875 0 L 0.96875 -0.875 C 0.96875 -0.875 1.359375 -1.03125 2.140625 -1.34375 C 2.929688 -1.664062 3.703125 -2.363281 4.453125 -3.4375 C 5.210938 -4.519531 5.59375 -6.203125 5.59375 -8.484375 L 5.59375 -52.703125 C 5.59375 -54.921875 5.210938 -56.566406 4.453125 -57.640625 C 3.703125 -58.722656 2.929688 -59.4375 2.140625 -59.78125 C 1.359375 -60.132812 0.96875 -60.3125 0.96875 -60.3125 L 0.96875 -61.1875 L 16.609375 -61.1875 L 16.609375 -60.3125 C 16.609375 -60.3125 16.226562 -60.117188 15.46875 -59.734375 C 14.707031 -59.359375 13.945312 -58.675781 13.1875 -57.6875 C 12.4375 -56.695312 12.0625 -55.269531 12.0625 -53.40625 L 12.0625 -1.578125 L 21.765625 -1.578125 C 23.046875 -1.578125 24.09375 -2.128906 24.90625 -3.234375 C 25.726562 -4.335938 26.359375 -5.707031 26.796875 -7.34375 C 27.234375 -8.976562 27.550781 -10.625 27.75 -12.28125 C 27.957031 -13.9375 28.070312 -15.316406 28.09375 -16.421875 C 28.125 -17.535156 28.140625 -18.09375 28.140625 -18.09375 Z M 28.140625 -18.09375 "/></g></g></g><g fill="#000000" fill-opacity="1"><g transform="translate(260.724965, 65.725379)"><g><path d="M 31.90625 0 L 0.875 0 L 0.875 -0.875 C 0.875 -0.875 1.265625 -1.03125 2.046875 -1.34375 C 2.835938 -1.664062 3.609375 -2.363281 4.359375 -3.4375 C 5.117188 -4.519531 5.5 -6.203125 5.5 -8.484375 L 5.5 -52.703125 C 5.5 -55.035156 5.117188 -56.738281 4.359375 -57.8125 C 3.609375 -58.894531 2.835938 -59.582031 2.046875 -59.875 C 1.265625 -60.164062 0.875 -60.3125 0.875 -60.3125 L 0.875 -61.1875 L 31.90625 -61.1875 L 31.90625 -43.09375 L 31.109375 -43.09375 C 31.109375 -43.09375 31.09375 -43.644531 31.0625 -44.75 C 31.039062 -45.851562 30.925781 -47.234375 30.71875 -48.890625 C 30.519531 -50.554688 30.203125 -52.207031 29.765625 -53.84375 C 29.328125 -55.476562 28.695312 -56.847656 27.875 -57.953125 C 27.0625 -59.054688 26.015625 -59.609375 24.734375 -59.609375 L 12.0625 -59.609375 L 12.0625 -39.25 L 22.03125 -39.25 C 22.84375 -39.25 23.492188 -39.640625 23.984375 -40.421875 C 24.484375 -41.210938 24.878906 -42.203125 25.171875 -43.390625 C 25.460938 -44.585938 25.664062 -45.769531 25.78125 -46.9375 C 25.894531 -48.101562 25.96875 -49.078125 26 -49.859375 C 26.03125 -50.648438 26.046875 -51.046875 26.046875 -51.046875 L 26.828125 -51.046875 L 26.828125 -25.875 L 26.046875 -25.875 C 26.046875 -25.875 26.046875 -26.265625 26.046875 -27.046875 C 26.046875 -27.835938 26 -28.828125 25.90625 -30.015625 C 25.820312 -31.210938 25.648438 -32.394531 25.390625 -33.5625 C 25.128906 -34.726562 24.75 -35.703125 24.25 -36.484375 C 23.757812 -37.273438 23.078125 -37.671875 22.203125 -37.671875 L 12.0625 -37.671875 L 12.0625 -1.578125 L 24.734375 -1.578125 C 26.015625 -1.578125 27.0625 -2.128906 27.875 -3.234375 C 28.695312 -4.335938 29.328125 -5.707031 29.765625 -7.34375 C 30.203125 -8.976562 30.519531 -10.625 30.71875 -12.28125 C 30.925781 -13.9375 31.039062 -15.316406 31.0625 -16.421875 C 31.09375 -17.535156 31.109375 -18.09375 31.109375 -18.09375 L 31.90625 -18.09375 Z M 31.90625 0 "/></g></g></g></g></g></g><g clip-path="url(#dcbc4b6c9e)"><path fill="#cdb4ea" d="M 43.933594 13.054688 C 35.800781 18.027344 28.042969 23.890625 22.363281 31.546875 C 16.6875 39.203125 13.246094 48.847656 14.480469 58.300781 C 15.109375 63.164062 16.933594 67.808594 17.625 72.664062 C 19.394531 85.074219 13.667969 97.285156 7.085938 107.957031 C 0.503906 118.625 -7.226562 128.972656 -10.203125 141.148438 C -13.175781 153.328125 -9.808594 168.230469 1.253906 174.144531 C 7.410156 177.429688 14.828125 177.375 21.707031 176.171875 C 27.164062 175.210938 32.425781 173.601562 37.488281 171.347656 C 42.554688 169.09375 47.273438 166.261719 51.640625 162.851562 C 60.757812 155.726562 68.144531 146.183594 78.523438 141.070312 C 87.574219 136.609375 97.941406 135.988281 107.960938 134.695312 C 118.183594 133.371094 128.246094 131.28125 138.152344 128.425781 C 143.535156 126.875 148.988281 125.027344 153.347656 121.507812 C 163.839844 113.050781 165.1875 97.292969 161.871094 84.222656 C 158.226562 69.742188 150.15625 56.757812 141.253906 44.78125 C 124.679688 22.464844 99.652344 -1.90625 69.277344 2.878906 C 60.21875 4.285156 51.699219 8.308594 43.933594 13.054688 Z M 43.933594 13.054688 " fill-opacity="1" fill-rule="nonzero"/></g><g transform="matrix(1, 0, 0, 1, 71, 31)"><g clip-path="url(#ab5dbbad93)"><g fill="#000000" fill-opacity="1"><g transform="translate(8.658933, 15.610364)"><g><path d="M 3.3125 -3.109375 L 2.234375 -0.390625 C 2.117188 -0.128906 1.9375 0 1.6875 0 L 0.859375 0 C 0.597656 0 0.46875 -0.101562 0.46875 -0.3125 C 0.46875 -0.375 0.472656 -0.429688 0.484375 -0.484375 C 0.492188 -0.535156 0.5 -0.5625 0.5 -0.5625 C 1.425781 -2.789062 2.207031 -4.671875 2.84375 -6.203125 C 3.488281 -7.734375 4.015625 -8.984375 4.421875 -9.953125 C 4.828125 -10.929688 5.140625 -11.691406 5.359375 -12.234375 C 5.585938 -12.773438 5.753906 -13.164062 5.859375 -13.40625 C 5.960938 -13.644531 6.023438 -13.789062 6.046875 -13.84375 C 6.066406 -13.894531 6.078125 -13.921875 6.078125 -13.921875 C 6.097656 -13.984375 6.140625 -14.054688 6.203125 -14.140625 C 6.265625 -14.222656 6.378906 -14.265625 6.546875 -14.265625 L 7.109375 -14.265625 C 7.273438 -14.265625 7.390625 -14.222656 7.453125 -14.140625 C 7.515625 -14.054688 7.5625 -13.984375 7.59375 -13.921875 L 13.125 -0.53125 C 13.125 -0.53125 13.132812 -0.5 13.15625 -0.4375 C 13.175781 -0.382812 13.1875 -0.34375 13.1875 -0.3125 C 13.1875 -0.101562 13.046875 0 12.765625 0 L 11.9375 0 C 11.675781 0 11.503906 -0.117188 11.421875 -0.359375 L 10.296875 -3.109375 Z M 6.828125 -11.78125 L 4 -4.75 L 9.625 -4.75 Z M 6.828125 -11.78125 "/></g></g></g><g fill="#000000" fill-opacity="1"><g transform="translate(23.116546, 15.610364)"><g><path d="M 10.390625 -9.75 C 10.390625 -10.257812 10.257812 -10.726562 10 -11.15625 C 9.75 -11.59375 9.410156 -11.945312 8.984375 -12.21875 C 8.554688 -12.488281 8.070312 -12.625 7.53125 -12.625 L 3.203125 -12.625 L 3.203125 -6.859375 L 7.546875 -6.859375 C 8.085938 -6.859375 8.570312 -6.988281 9 -7.25 C 9.425781 -7.519531 9.765625 -7.875 10.015625 -8.3125 C 10.265625 -8.75 10.390625 -9.226562 10.390625 -9.75 Z M 1.5625 -0.421875 L 1.5625 -13.796875 C 1.5625 -14.109375 1.703125 -14.265625 1.984375 -14.265625 L 7.53125 -14.265625 C 8.375 -14.265625 9.132812 -14.054688 9.8125 -13.640625 C 10.5 -13.234375 11.039062 -12.6875 11.4375 -12 C 11.84375 -11.3125 12.046875 -10.550781 12.046875 -9.71875 C 12.046875 -8.820312 11.800781 -8.003906 11.3125 -7.265625 C 10.832031 -6.535156 10.203125 -5.988281 9.421875 -5.625 L 11.953125 -0.421875 C 11.960938 -0.378906 11.972656 -0.34375 11.984375 -0.3125 C 11.992188 -0.289062 12 -0.269531 12 -0.25 C 12 -0.0820312 11.878906 0 11.640625 0 L 10.59375 0 C 10.382812 0 10.21875 -0.117188 10.09375 -0.359375 L 7.765625 -5.25 C 7.722656 -5.25 7.617188 -5.242188 7.453125 -5.234375 C 7.285156 -5.234375 7.117188 -5.234375 6.953125 -5.234375 C 6.785156 -5.234375 6.660156 -5.234375 6.578125 -5.234375 L 3.203125 -5.234375 L 3.203125 -0.421875 C 3.203125 -0.140625 3.0625 0 2.78125 0 L 1.984375 0 C 1.703125 0 1.5625 -0.140625 1.5625 -0.421875 Z M 1.5625 -0.421875 "/></g></g></g><g fill="#000000" fill-opacity="1"><g transform="translate(36.709018, 15.610364)"><g><path d="M 8.1875 -14.453125 C 9.195312 -14.453125 10.144531 -14.257812 11.03125 -13.875 C 11.914062 -13.5 12.691406 -12.972656 13.359375 -12.296875 C 14.035156 -11.628906 14.566406 -10.847656 14.953125 -9.953125 C 15.335938 -9.066406 15.53125 -8.113281 15.53125 -7.09375 C 15.53125 -6.082031 15.335938 -5.132812 14.953125 -4.25 C 14.578125 -3.363281 14.050781 -2.585938 13.375 -1.921875 C 12.695312 -1.253906 11.914062 -0.726562 11.03125 -0.34375 C 10.144531 0.03125 9.191406 0.21875 8.171875 0.21875 C 7.160156 0.21875 6.210938 0.03125 5.328125 -0.34375 C 4.441406 -0.726562 3.660156 -1.253906 2.984375 -1.921875 C 2.316406 -2.597656 1.789062 -3.378906 1.40625 -4.265625 C 1.03125 -5.148438 0.84375 -6.097656 0.84375 -7.109375 C 0.84375 -8.117188 1.03125 -9.066406 1.40625 -9.953125 C 1.789062 -10.847656 2.316406 -11.628906 2.984375 -12.296875 C 3.660156 -12.972656 4.441406 -13.5 5.328125 -13.875 C 6.222656 -14.257812 7.175781 -14.453125 8.1875 -14.453125 Z M 2.515625 -7.125 C 2.515625 -6.34375 2.660156 -5.601562 2.953125 -4.90625 C 3.253906 -4.21875 3.660156 -3.613281 4.171875 -3.09375 C 4.679688 -2.582031 5.28125 -2.175781 5.96875 -1.875 C 6.664062 -1.582031 7.40625 -1.4375 8.1875 -1.4375 C 8.96875 -1.4375 9.695312 -1.582031 10.375 -1.875 C 11.050781 -2.175781 11.648438 -2.582031 12.171875 -3.09375 C 12.691406 -3.613281 13.097656 -4.21875 13.390625 -4.90625 C 13.691406 -5.601562 13.84375 -6.34375 13.84375 -7.125 C 13.84375 -7.90625 13.691406 -8.632812 13.390625 -9.3125 C 13.097656 -10 12.691406 -10.597656 12.171875 -11.109375 C 11.648438 -11.628906 11.050781 -12.035156 10.375 -12.328125 C 9.695312 -12.628906 8.96875 -12.78125 8.1875 -12.78125 C 7.40625 -12.78125 6.664062 -12.628906 5.96875 -12.328125 C 5.28125 -12.035156 4.679688 -11.628906 4.171875 -11.109375 C 3.660156 -10.597656 3.253906 -10 2.953125 -9.3125 C 2.660156 -8.632812 2.515625 -7.90625 2.515625 -7.125 Z M 2.515625 -7.125 "/></g></g></g><g fill="#000000" fill-opacity="1"><g transform="translate(53.800537, 15.610364)"><g><path d="M 6.859375 -2.5 L 11.46875 -13.984375 C 11.53125 -14.171875 11.644531 -14.265625 11.8125 -14.265625 L 12.875 -14.265625 C 13.101562 -14.265625 13.21875 -14.164062 13.21875 -13.96875 C 13.21875 -13.957031 13.210938 -13.9375 13.203125 -13.90625 C 13.203125 -13.882812 13.195312 -13.851562 13.1875 -13.8125 L 11 -8.53125 C 11.40625 -7.519531 11.816406 -6.507812 12.234375 -5.5 C 12.648438 -4.5 13.0625 -3.5 13.46875 -2.5 C 14.25 -4.394531 15.023438 -6.289062 15.796875 -8.1875 C 16.578125 -10.09375 17.351562 -11.992188 18.125 -13.890625 C 18.226562 -14.140625 18.398438 -14.265625 18.640625 -14.265625 L 19.453125 -14.265625 C 19.734375 -14.265625 19.875 -14.164062 19.875 -13.96875 C 19.875 -13.914062 19.859375 -13.878906 19.828125 -13.859375 L 14.234375 -0.421875 C 14.234375 -0.367188 14.222656 -0.34375 14.203125 -0.34375 C 14.203125 -0.332031 14.171875 -0.269531 14.109375 -0.15625 C 14.046875 -0.0507812 13.929688 0 13.765625 0 L 13.1875 0 C 13.019531 0 12.898438 -0.0390625 12.828125 -0.125 C 12.753906 -0.21875 12.710938 -0.296875 12.703125 -0.359375 L 10.125 -6.515625 L 7.59375 -0.421875 C 7.46875 -0.140625 7.285156 0 7.046875 0 L 6.53125 0 C 6.394531 0 6.289062 -0.046875 6.21875 -0.140625 C 6.144531 -0.234375 6.097656 -0.304688 6.078125 -0.359375 L 0.484375 -13.8125 C 0.484375 -13.832031 0.476562 -13.859375 0.46875 -13.890625 C 0.46875 -13.921875 0.46875 -13.945312 0.46875 -13.96875 C 0.46875 -14.164062 0.582031 -14.265625 0.8125 -14.265625 L 1.75 -14.265625 C 1.96875 -14.265625 2.132812 -14.125 2.25 -13.84375 Z M 6.859375 -2.5 "/></g></g></g><g fill="#000000" fill-opacity="1"><g transform="translate(74.96787, 15.610364)"><g><path d="M 6.859375 -2.5 L 11.46875 -13.984375 C 11.53125 -14.171875 11.644531 -14.265625 11.8125 -14.265625 L 12.875 -14.265625 C 13.101562 -14.265625 13.21875 -14.164062 13.21875 -13.96875 C 13.21875 -13.957031 13.210938 -13.9375 13.203125 -13.90625 C 13.203125 -13.882812 13.195312 -13.851562 13.1875 -13.8125 L 11 -8.53125 C 11.40625 -7.519531 11.816406 -6.507812 12.234375 -5.5 C 12.648438 -4.5 13.0625 -3.5 13.46875 -2.5 C 14.25 -4.394531 15.023438 -6.289062 15.796875 -8.1875 C 16.578125 -10.09375 17.351562 -11.992188 18.125 -13.890625 C 18.226562 -14.140625 18.398438 -14.265625 18.640625 -14.265625 L 19.453125 -14.265625 C 19.734375 -14.265625 19.875 -14.164062 19.875 -13.96875 C 19.875 -13.914062 19.859375 -13.878906 19.828125 -13.859375 L 14.234375 -0.421875 C 14.234375 -0.367188 14.222656 -0.34375 14.203125 -0.34375 C 14.203125 -0.332031 14.171875 -0.269531 14.109375 -0.15625 C 14.046875 -0.0507812 13.929688 0 13.765625 0 L 13.1875 0 C 13.019531 0 12.898438 -0.0390625 12.828125 -0.125 C 12.753906 -0.21875 12.710938 -0.296875 12.703125 -0.359375 L 10.125 -6.515625 L 7.59375 -0.421875 C 7.46875 -0.140625 7.285156 0 7.046875 0 L 6.53125 0 C 6.394531 0 6.289062 -0.046875 6.21875 -0.140625 C 6.144531 -0.234375 6.097656 -0.304688 6.078125 -0.359375 L 0.484375 -13.8125 C 0.484375 -13.832031 0.476562 -13.859375 0.46875 -13.890625 C 0.46875 -13.921875 0.46875 -13.945312 0.46875 -13.96875 C 0.46875 -14.164062 0.582031 -14.265625 0.8125 -14.265625 L 1.75 -14.265625 C 1.96875 -14.265625 2.132812 -14.125 2.25 -13.84375 Z M 6.859375 -2.5 "/></g></g></g><g fill="#000000" fill-opacity="1"><g transform="translate(96.135203, 15.610364)"><g><path d="M 3.3125 -3.109375 L 2.234375 -0.390625 C 2.117188 -0.128906 1.9375 0 1.6875 0 L 0.859375 0 C 0.597656 0 0.46875 -0.101562 0.46875 -0.3125 C 0.46875 -0.375 0.472656 -0.429688 0.484375 -0.484375 C 0.492188 -0.535156 0.5 -0.5625 0.5 -0.5625 C 1.425781 -2.789062 2.207031 -4.671875 2.84375 -6.203125 C 3.488281 -7.734375 4.015625 -8.984375 4.421875 -9.953125 C 4.828125 -10.929688 5.140625 -11.691406 5.359375 -12.234375 C 5.585938 -12.773438 5.753906 -13.164062 5.859375 -13.40625 C 5.960938 -13.644531 6.023438 -13.789062 6.046875 -13.84375 C 6.066406 -13.894531 6.078125 -13.921875 6.078125 -13.921875 C 6.097656 -13.984375 6.140625 -14.054688 6.203125 -14.140625 C 6.265625 -14.222656 6.378906 -14.265625 6.546875 -14.265625 L 7.109375 -14.265625 C 7.273438 -14.265625 7.390625 -14.222656 7.453125 -14.140625 C 7.515625 -14.054688 7.5625 -13.984375 7.59375 -13.921875 L 13.125 -0.53125 C 13.125 -0.53125 13.132812 -0.5 13.15625 -0.4375 C 13.175781 -0.382812 13.1875 -0.34375 13.1875 -0.3125 C 13.1875 -0.101562 13.046875 0 12.765625 0 L 11.9375 0 C 11.675781 0 11.503906 -0.117188 11.421875 -0.359375 L 10.296875 -3.109375 Z M 6.828125 -11.78125 L 4 -4.75 L 9.625 -4.75 Z M 6.828125 -11.78125 "/></g></g></g><g fill="#000000" fill-opacity="1"><g transform="translate(110.592817, 15.610364)"><g><path d="M 3.203125 -13.84375 L 3.203125 -0.421875 C 3.203125 -0.140625 3.0625 0 2.78125 0 L 1.984375 0 C 1.703125 0 1.5625 -0.140625 1.5625 -0.421875 L 1.5625 -13.84375 C 1.5625 -14.125 1.703125 -14.265625 1.984375 -14.265625 L 2.78125 -14.265625 C 3.0625 -14.265625 3.203125 -14.125 3.203125 -13.84375 Z M 3.203125 -13.84375 "/></g></g></g><g fill="#000000" fill-opacity="1"><g transform="translate(1.311645, 34.835974)"><g><path d="M 3.203125 -13.84375 L 3.203125 -0.421875 C 3.203125 -0.140625 3.0625 0 2.78125 0 L 1.984375 0 C 1.703125 0 1.5625 -0.140625 1.5625 -0.421875 L 1.5625 -13.84375 C 1.5625 -14.125 1.703125 -14.265625 1.984375 -14.265625 L 2.78125 -14.265625 C 3.0625 -14.265625 3.203125 -14.125 3.203125 -13.84375 Z M 3.203125 -13.84375 "/></g></g></g><g fill="#000000" fill-opacity="1"><g transform="translate(6.771702, 34.835974)"><g><path d="M 13.234375 0 L 12.34375 0 C 12.195312 0 12.070312 -0.0546875 11.96875 -0.171875 L 3.203125 -11.6875 L 3.203125 -0.421875 C 3.203125 -0.140625 3.054688 0 2.765625 0 L 1.984375 0 C 1.703125 0 1.5625 -0.140625 1.5625 -0.421875 L 1.5625 -13.8125 C 1.5625 -13.945312 1.597656 -14.054688 1.671875 -14.140625 C 1.742188 -14.222656 1.847656 -14.265625 1.984375 -14.265625 L 3.03125 -14.265625 C 3.1875 -14.265625 3.3125 -14.195312 3.40625 -14.0625 L 12.03125 -2.84375 L 12.03125 -13.890625 C 12.070312 -14.140625 12.210938 -14.265625 12.453125 -14.265625 L 13.234375 -14.265625 C 13.359375 -14.265625 13.46875 -14.222656 13.5625 -14.140625 C 13.65625 -14.066406 13.703125 -13.96875 13.703125 -13.84375 L 13.703125 -0.421875 C 13.703125 -0.140625 13.546875 0 13.234375 0 Z M 13.234375 0 "/></g></g></g><g fill="#000000" fill-opacity="1"><g transform="translate(22.671239, 34.835974)"><g><path d="M 1.5625 -0.40625 L 1.5625 -13.796875 C 1.5625 -14.109375 1.707031 -14.265625 2 -14.265625 L 6.40625 -14.265625 C 7.414062 -14.265625 8.351562 -14.082031 9.21875 -13.71875 C 10.082031 -13.351562 10.835938 -12.84375 11.484375 -12.1875 C 12.128906 -11.53125 12.632812 -10.769531 13 -9.90625 C 13.363281 -9.039062 13.546875 -8.109375 13.546875 -7.109375 C 13.546875 -6.140625 13.359375 -5.222656 12.984375 -4.359375 C 12.617188 -3.492188 12.109375 -2.734375 11.453125 -2.078125 C 10.796875 -1.429688 10.035156 -0.921875 9.171875 -0.546875 C 8.304688 -0.179688 7.382812 0 6.40625 0 L 2 0 C 1.875 0 1.769531 -0.0234375 1.6875 -0.078125 C 1.601562 -0.140625 1.5625 -0.25 1.5625 -0.40625 Z M 3.203125 -1.640625 L 6.515625 -1.640625 C 7.304688 -1.640625 8.03125 -1.789062 8.6875 -2.09375 C 9.34375 -2.40625 9.910156 -2.816406 10.390625 -3.328125 C 10.878906 -3.847656 11.253906 -4.441406 11.515625 -5.109375 C 11.785156 -5.785156 11.921875 -6.488281 11.921875 -7.21875 C 11.921875 -8.3125 11.664062 -9.257812 11.15625 -10.0625 C 10.644531 -10.875 9.96875 -11.503906 9.125 -11.953125 C 8.289062 -12.398438 7.382812 -12.625 6.40625 -12.625 L 3.203125 -12.625 Z M 3.203125 -1.640625 "/></g></g></g><g fill="#000000" fill-opacity="1"><g transform="translate(37.686394, 34.835974)"><g><path d="M 3.03125 -13.84375 L 3.03125 -5.828125 C 3.03125 -5.003906 3.203125 -4.253906 3.546875 -3.578125 C 3.890625 -2.910156 4.375 -2.378906 5 -1.984375 C 5.625 -1.585938 6.363281 -1.390625 7.21875 -1.390625 C 8.132812 -1.390625 8.898438 -1.585938 9.515625 -1.984375 C 10.140625 -2.378906 10.613281 -2.910156 10.9375 -3.578125 C 11.269531 -4.253906 11.4375 -5.003906 11.4375 -5.828125 L 11.4375 -13.84375 C 11.4375 -13.957031 11.476562 -14.054688 11.5625 -14.140625 C 11.644531 -14.222656 11.75 -14.265625 11.875 -14.265625 L 12.609375 -14.265625 C 12.734375 -14.265625 12.847656 -14.222656 12.953125 -14.140625 C 13.054688 -14.066406 13.109375 -13.96875 13.109375 -13.84375 L 13.109375 -5.625 C 13.109375 -4.457031 12.84375 -3.429688 12.3125 -2.546875 C 11.78125 -1.671875 11.066406 -0.988281 10.171875 -0.5 C 9.285156 -0.0078125 8.300781 0.234375 7.21875 0.234375 C 6.414062 0.234375 5.65625 0.0820312 4.9375 -0.21875 C 4.226562 -0.53125 3.601562 -0.953125 3.0625 -1.484375 C 2.53125 -2.015625 2.109375 -2.632812 1.796875 -3.34375 C 1.492188 -4.0625 1.34375 -4.820312 1.34375 -5.625 L 1.34375 -13.84375 C 1.34375 -13.9375 1.378906 -14.03125 1.453125 -14.125 C 1.535156 -14.21875 1.632812 -14.265625 1.75 -14.265625 L 2.59375 -14.265625 C 2.695312 -14.265625 2.796875 -14.222656 2.890625 -14.140625 C 2.984375 -14.054688 3.03125 -13.957031 3.03125 -13.84375 Z M 3.03125 -13.84375 "/></g></g></g><g fill="#000000" fill-opacity="1"><g transform="translate(52.836129, 34.835974)"><g><path d="M 9.625 -11.296875 C 9.425781 -11.492188 9.15625 -11.710938 8.8125 -11.953125 C 8.46875 -12.191406 8.070312 -12.398438 7.625 -12.578125 C 7.175781 -12.765625 6.6875 -12.859375 6.15625 -12.859375 C 5.4375 -12.859375 4.84375 -12.742188 4.375 -12.515625 C 3.914062 -12.285156 3.582031 -11.992188 3.375 -11.640625 C 3.164062 -11.285156 3.0625 -10.921875 3.0625 -10.546875 C 3.0625 -10.109375 3.226562 -9.75 3.5625 -9.46875 C 3.90625 -9.1875 4.335938 -8.953125 4.859375 -8.765625 C 5.390625 -8.585938 5.929688 -8.421875 6.484375 -8.265625 C 7.054688 -8.109375 7.632812 -7.929688 8.21875 -7.734375 C 8.8125 -7.546875 9.359375 -7.3125 9.859375 -7.03125 C 10.367188 -6.75 10.773438 -6.382812 11.078125 -5.9375 C 11.390625 -5.5 11.546875 -4.941406 11.546875 -4.265625 C 11.546875 -3.359375 11.304688 -2.566406 10.828125 -1.890625 C 10.347656 -1.222656 9.703125 -0.707031 8.890625 -0.34375 C 8.078125 0.0078125 7.171875 0.1875 6.171875 0.1875 C 5.179688 0.1875 4.226562 -0.015625 3.3125 -0.421875 C 2.40625 -0.828125 1.644531 -1.429688 1.03125 -2.234375 C 0.9375 -2.367188 0.890625 -2.484375 0.890625 -2.578125 C 0.890625 -2.691406 0.945312 -2.789062 1.0625 -2.875 L 1.671875 -3.40625 C 1.765625 -3.46875 1.859375 -3.5 1.953125 -3.5 C 2.046875 -3.5 2.132812 -3.457031 2.21875 -3.375 C 2.300781 -3.289062 2.359375 -3.234375 2.390625 -3.203125 C 2.765625 -2.828125 3.191406 -2.503906 3.671875 -2.234375 C 4.160156 -1.960938 4.628906 -1.757812 5.078125 -1.625 C 5.535156 -1.488281 5.921875 -1.421875 6.234375 -1.421875 C 6.628906 -1.421875 7.039062 -1.472656 7.46875 -1.578125 C 7.894531 -1.691406 8.289062 -1.859375 8.65625 -2.078125 C 9.019531 -2.304688 9.316406 -2.59375 9.546875 -2.9375 C 9.773438 -3.28125 9.890625 -3.6875 9.890625 -4.15625 C 9.890625 -4.675781 9.703125 -5.085938 9.328125 -5.390625 C 8.960938 -5.703125 8.484375 -5.957031 7.890625 -6.15625 C 7.304688 -6.351562 6.679688 -6.535156 6.015625 -6.703125 C 4.441406 -7.117188 3.257812 -7.609375 2.46875 -8.171875 C 1.675781 -8.742188 1.28125 -9.519531 1.28125 -10.5 C 1.28125 -11.28125 1.484375 -11.96875 1.890625 -12.5625 C 2.304688 -13.15625 2.882812 -13.617188 3.625 -13.953125 C 4.363281 -14.296875 5.234375 -14.46875 6.234375 -14.46875 C 6.992188 -14.46875 7.769531 -14.296875 8.5625 -13.953125 C 9.363281 -13.609375 10.039062 -13.171875 10.59375 -12.640625 C 10.664062 -12.554688 10.742188 -12.460938 10.828125 -12.359375 C 10.910156 -12.265625 10.953125 -12.179688 10.953125 -12.109375 C 10.953125 -12.003906 10.898438 -11.898438 10.796875 -11.796875 L 10.21875 -11.25 C 10.132812 -11.15625 10.050781 -11.109375 9.96875 -11.109375 C 9.875 -11.109375 9.757812 -11.171875 9.625 -11.296875 Z M 9.625 -11.296875 "/></g></g></g><g fill="#000000" fill-opacity="1"><g transform="translate(65.851831, 34.835974)"><g><path d="M 0.84375 -14.265625 L 10.71875 -14.265625 C 10.832031 -14.265625 10.9375 -14.226562 11.03125 -14.15625 C 11.125 -14.082031 11.175781 -13.976562 11.1875 -13.84375 L 11.1875 -13.046875 C 11.1875 -12.921875 11.144531 -12.8125 11.0625 -12.71875 C 10.988281 -12.632812 10.875 -12.59375 10.71875 -12.59375 L 6.625 -12.59375 L 6.625 -0.421875 C 6.625 -0.304688 6.585938 -0.207031 6.515625 -0.125 C 6.441406 -0.0390625 6.332031 0 6.1875 0 L 5.40625 0 C 5.269531 0 5.160156 -0.0351562 5.078125 -0.109375 C 4.992188 -0.191406 4.953125 -0.296875 4.953125 -0.421875 L 4.953125 -12.59375 L 0.84375 -12.59375 C 0.550781 -12.59375 0.40625 -12.742188 0.40625 -13.046875 L 0.40625 -13.84375 C 0.40625 -14.125 0.550781 -14.265625 0.84375 -14.265625 Z M 0.84375 -14.265625 "/></g></g></g><g fill="#000000" fill-opacity="1"><g transform="translate(78.290765, 34.835974)"><g><path d="M 10.390625 -9.75 C 10.390625 -10.257812 10.257812 -10.726562 10 -11.15625 C 9.75 -11.59375 9.410156 -11.945312 8.984375 -12.21875 C 8.554688 -12.488281 8.070312 -12.625 7.53125 -12.625 L 3.203125 -12.625 L 3.203125 -6.859375 L 7.546875 -6.859375 C 8.085938 -6.859375 8.570312 -6.988281 9 -7.25 C 9.425781 -7.519531 9.765625 -7.875 10.015625 -8.3125 C 10.265625 -8.75 10.390625 -9.226562 10.390625 -9.75 Z M 1.5625 -0.421875 L 1.5625 -13.796875 C 1.5625 -14.109375 1.703125 -14.265625 1.984375 -14.265625 L 7.53125 -14.265625 C 8.375 -14.265625 9.132812 -14.054688 9.8125 -13.640625 C 10.5 -13.234375 11.039062 -12.6875 11.4375 -12 C 11.84375 -11.3125 12.046875 -10.550781 12.046875 -9.71875 C 12.046875 -8.820312 11.800781 -8.003906 11.3125 -7.265625 C 10.832031 -6.535156 10.203125 -5.988281 9.421875 -5.625 L 11.953125 -0.421875 C 11.960938 -0.378906 11.972656 -0.34375 11.984375 -0.3125 C 11.992188 -0.289062 12 -0.269531 12 -0.25 C 12 -0.0820312 11.878906 0 11.640625 0 L 10.59375 0 C 10.382812 0 10.21875 -0.117188 10.09375 -0.359375 L 7.765625 -5.25 C 7.722656 -5.25 7.617188 -5.242188 7.453125 -5.234375 C 7.285156 -5.234375 7.117188 -5.234375 6.953125 -5.234375 C 6.785156 -5.234375 6.660156 -5.234375 6.578125 -5.234375 L 3.203125 -5.234375 L 3.203125 -0.421875 C 3.203125 -0.140625 3.0625 0 2.78125 0 L 1.984375 0 C 1.703125 0 1.5625 -0.140625 1.5625 -0.421875 Z M 1.5625 -0.421875 "/></g></g></g><g fill="#000000" fill-opacity="1"><g transform="translate(91.883237, 34.835974)"><g><path d="M 3.203125 -13.84375 L 3.203125 -0.421875 C 3.203125 -0.140625 3.0625 0 2.78125 0 L 1.984375 0 C 1.703125 0 1.5625 -0.140625 1.5625 -0.421875 L 1.5625 -13.84375 C 1.5625 -14.125 1.703125 -14.265625 1.984375 -14.265625 L 2.78125 -14.265625 C 3.0625 -14.265625 3.203125 -14.125 3.203125 -13.84375 Z M 3.203125 -13.84375 "/></g></g></g><g fill="#000000" fill-opacity="1"><g transform="translate(97.343294, 34.835974)"><g><path d="M 1.984375 -14.265625 L 11.21875 -14.265625 C 11.5 -14.265625 11.640625 -14.113281 11.640625 -13.8125 L 11.640625 -13.03125 C 11.640625 -12.914062 11.601562 -12.8125 11.53125 -12.71875 C 11.457031 -12.632812 11.347656 -12.59375 11.203125 -12.59375 L 3.203125 -12.59375 L 3.203125 -8.34375 L 9.578125 -8.34375 C 9.691406 -8.34375 9.789062 -8.304688 9.875 -8.234375 C 9.957031 -8.160156 10 -8.050781 10 -7.90625 L 10 -7.109375 C 10 -6.992188 9.960938 -6.890625 9.890625 -6.796875 C 9.816406 -6.710938 9.710938 -6.671875 9.578125 -6.671875 L 3.203125 -6.671875 L 3.203125 -1.671875 L 11.28125 -1.671875 C 11.570312 -1.671875 11.71875 -1.515625 11.71875 -1.203125 L 11.71875 -0.421875 C 11.71875 -0.140625 11.578125 0 11.296875 0 L 1.984375 0 C 1.703125 0 1.5625 -0.132812 1.5625 -0.40625 L 1.5625 -13.8125 C 1.5625 -14.113281 1.703125 -14.265625 1.984375 -14.265625 Z M 1.984375 -14.265625 "/></g></g></g><g fill="#000000" fill-opacity="1"><g transform="translate(110.378223, 34.835974)"><g><path d="M 9.625 -11.296875 C 9.425781 -11.492188 9.15625 -11.710938 8.8125 -11.953125 C 8.46875 -12.191406 8.070312 -12.398438 7.625 -12.578125 C 7.175781 -12.765625 6.6875 -12.859375 6.15625 -12.859375 C 5.4375 -12.859375 4.84375 -12.742188 4.375 -12.515625 C 3.914062 -12.285156 3.582031 -11.992188 3.375 -11.640625 C 3.164062 -11.285156 3.0625 -10.921875 3.0625 -10.546875 C 3.0625 -10.109375 3.226562 -9.75 3.5625 -9.46875 C 3.90625 -9.1875 4.335938 -8.953125 4.859375 -8.765625 C 5.390625 -8.585938 5.929688 -8.421875 6.484375 -8.265625 C 7.054688 -8.109375 7.632812 -7.929688 8.21875 -7.734375 C 8.8125 -7.546875 9.359375 -7.3125 9.859375 -7.03125 C 10.367188 -6.75 10.773438 -6.382812 11.078125 -5.9375 C 11.390625 -5.5 11.546875 -4.941406 11.546875 -4.265625 C 11.546875 -3.359375 11.304688 -2.566406 10.828125 -1.890625 C 10.347656 -1.222656 9.703125 -0.707031 8.890625 -0.34375 C 8.078125 0.0078125 7.171875 0.1875 6.171875 0.1875 C 5.179688 0.1875 4.226562 -0.015625 3.3125 -0.421875 C 2.40625 -0.828125 1.644531 -1.429688 1.03125 -2.234375 C 0.9375 -2.367188 0.890625 -2.484375 0.890625 -2.578125 C 0.890625 -2.691406 0.945312 -2.789062 1.0625 -2.875 L 1.671875 -3.40625 C 1.765625 -3.46875 1.859375 -3.5 1.953125 -3.5 C 2.046875 -3.5 2.132812 -3.457031 2.21875 -3.375 C 2.300781 -3.289062 2.359375 -3.234375 2.390625 -3.203125 C 2.765625 -2.828125 3.191406 -2.503906 3.671875 -2.234375 C 4.160156 -1.960938 4.628906 -1.757812 5.078125 -1.625 C 5.535156 -1.488281 5.921875 -1.421875 6.234375 -1.421875 C 6.628906 -1.421875 7.039062 -1.472656 7.46875 -1.578125 C 7.894531 -1.691406 8.289062 -1.859375 8.65625 -2.078125 C 9.019531 -2.304688 9.316406 -2.59375 9.546875 -2.9375 C 9.773438 -3.28125 9.890625 -3.6875 9.890625 -4.15625 C 9.890625 -4.675781 9.703125 -5.085938 9.328125 -5.390625 C 8.960938 -5.703125 8.484375 -5.957031 7.890625 -6.15625 C 7.304688 -6.351562 6.679688 -6.535156 6.015625 -6.703125 C 4.441406 -7.117188 3.257812 -7.609375 2.46875 -8.171875 C 1.675781 -8.742188 1.28125 -9.519531 1.28125 -10.5 C 1.28125 -11.28125 1.484375 -11.96875 1.890625 -12.5625 C 2.304688 -13.15625 2.882812 -13.617188 3.625 -13.953125 C 4.363281 -14.296875 5.234375 -14.46875 6.234375 -14.46875 C 6.992188 -14.46875 7.769531 -14.296875 8.5625 -13.953125 C 9.363281 -13.609375 10.039062 -13.171875 10.59375 -12.640625 C 10.664062 -12.554688 10.742188 -12.460938 10.828125 -12.359375 C 10.910156 -12.265625 10.953125 -12.179688 10.953125 -12.109375 C 10.953125 -12.003906 10.898438 -11.898438 10.796875 -11.796875 L 10.21875 -11.25 C 10.132812 -11.15625 10.050781 -11.109375 9.96875 -11.109375 C 9.875 -11.109375 9.757812 -11.171875 9.625 -11.296875 Z M 9.625 -11.296875 "/></g></g></g></g></g><g clip-path="url(#5e9b8be50d)"><path fill="#b7c0e7" d="M -44.308594 88.679688 C -42.421875 97.015625 -32.507812 105.71875 -26.128906 111.738281 C -18.964844 118.503906 -10.929688 123.132812 -1.765625 127.414062 C 17.710938 136.511719 45.136719 129.972656 51.628906 110.96875 C 58.535156 90.75 48.539062 72.636719 31.410156 59.367188 C 5.132812 39.003906 -50.746094 60.195312 -44.308594 88.679688 " fill-opacity="1" fill-rule="nonzero"/></g></svg>