<svg xmlns="http://www.w3.org/2000/svg" xmlns:xlink="http://www.w3.org/1999/xlink" width="5000" zoomAndPan="magnify" viewBox="0 0 3750 3749.999967" height="5000" preserveAspectRatio="xMidYMid meet" version="1.0"><defs><clipPath id="d94fd6aee5"><path d="M 919 491.402344 L 2961 491.402344 L 2961 3258.902344 L 919 3258.902344 Z M 919 491.402344 " clip-rule="nonzero"/></clipPath></defs><g clip-path="url(#d94fd6aee5)"><path fill="#ffffff" d="M 2725.226562 2217.039062 C 2727.25 2200.429688 2734.003906 2184.628906 2744.808594 2171.800781 C 2807.332031 2091.453125 2838.660156 2051.210938 2845.277344 2039.460938 C 2894.027344 1953.441406 2808.273438 1743.453125 2652.4375 1702.9375 L 2652.4375 1703.074219 C 2584.242188 1686.058594 2511.996094 1699.5625 2454.464844 1739.941406 C 2424.082031 1765.058594 2400.988281 1797.605469 2387.21875 1834.335938 C 2375.875 1863.640625 2370.472656 1894.699219 2371.417969 1926.160156 C 2372.226562 1949.523438 2358.992188 1971.128906 2337.792969 1980.984375 C 2336.980469 1981.390625 2336.171875 1981.660156 2335.359375 1982.066406 C 2322.667969 1987.0625 2308.621094 1987.738281 2295.390625 1984.09375 C 2271.351562 1919.945312 2210.042969 1877.410156 2141.578125 1877.410156 C 2112.410156 1827.582031 2074.734375 1783.421875 2030.035156 1746.960938 C 1990.738281 1715.09375 1967.914062 1667.289062 1967.914062 1616.648438 C 1967.78125 1575.730469 1982.5 1536.164062 2009.507812 1505.238281 C 2168.722656 1323.203125 2226.109375 1097.132812 2152.378906 917.265625 C 2116.59375 830.164062 2041.648438 732.664062 1965.210938 716.726562 L 1965.078125 716.59375 C 1982.226562 679.320312 1986.007812 637.324219 1975.878906 597.621094 C 1956.433594 528.75 1891.882812 484.050781 1879.457031 492.421875 C 1868.925781 499.714844 1901.742188 541.847656 1895.394531 609.90625 L 1895.257812 609.90625 C 1893.097656 633.136719 1886.75 655.6875 1876.894531 676.617188 C 1817.746094 670.8125 1741.988281 673.648438 1696.34375 722.261719 C 1676.355469 743.597656 1685.269531 750.351562 1657.316406 784.382812 C 1603.300781 850.28125 1561.707031 854.601562 1516.738281 901.867188 C 1501.882812 918.207031 1486.082031 933.734375 1469.609375 948.457031 C 1464.882812 952.644531 1454.617188 952.644531 1448 961.015625 L 1447.867188 961.015625 C 1441.519531 970.0625 1439.089844 981.273438 1441.382812 992.074219 C 1442.601562 997.746094 1445.300781 1003.148438 1448.945312 1007.605469 C 1461.640625 1022.863281 1471.769531 1039.746094 1479.332031 1057.972656 C 1481.492188 1063.511719 1484.191406 1068.777344 1487.570312 1073.636719 C 1504.988281 1098.621094 1534.023438 1113.070312 1564.40625 1111.585938 C 1587.363281 1109.019531 1608.699219 1098.757812 1625.042969 1082.417969 C 1657.722656 1053.25 1720.378906 1017.195312 1852.992188 989.914062 L 1853.800781 1011.386719 L 1853.800781 1011.25 C 1805.863281 1042.039062 1765.484375 1082.957031 1735.234375 1131.03125 C 1662.042969 1152.230469 1592.632812 1184.371094 1529.03125 1226.503906 C 1451.652344 1277.953125 1343.484375 1349.929688 1308.914062 1480.382812 L 1309.046875 1480.382812 C 1293.382812 1556.003906 1289.738281 1633.519531 1298.378906 1710.222656 C 1279.609375 1707.925781 1260.703125 1709.816406 1242.875 1715.890625 C 1225.1875 1722.238281 1209.117188 1732.503906 1195.882812 1745.871094 C 1135.789062 1801.777344 1025.460938 1753.839844 960.503906 1818.253906 L 960.503906 1818.121094 C 927.421875 1849.316406 913.105469 1895.363281 922.832031 1939.792969 C 930.527344 1954.511719 936.875 1969.769531 941.871094 1985.703125 C 946.597656 2002.585938 949.164062 2019.871094 949.433594 2037.425781 C 952.539062 2138.707031 927.691406 2193.9375 957.128906 2227.699219 C 975.226562 2248.359375 987.785156 2231.480469 1038.15625 2261.324219 C 1084.882812 2289.007812 1087.179688 2311.152344 1118.503906 2314.800781 C 1145.648438 2317.90625 1146.863281 2301.566406 1194.261719 2299 C 1219.652344 2297.648438 1236.257812 2301.429688 1245.847656 2290.085938 L 1245.984375 2290.222656 C 1251.792969 2281.175781 1253.683594 2270.238281 1250.980469 2259.839844 C 1242.742188 2205.6875 1170.09375 2161.390625 1143.621094 2176.789062 C 1136.195312 2181.109375 1134.84375 2188.671875 1123.636719 2193.265625 C 1112.023438 2197.179688 1099.328125 2196.503906 1088.257812 2191.375 C 1085.691406 2183.136719 1081.640625 2175.4375 1076.375 2168.6875 C 1065.03125 2155.859375 1050.308594 2146.539062 1033.96875 2141.679688 C 1016.007812 2132.902344 1002.234375 2096.710938 1020.195312 1976.929688 L 1020.328125 1976.929688 C 1025.328125 1960.050781 1035.726562 1945.195312 1050.039062 1934.933594 C 1062.464844 1926.964844 1076.777344 1922.644531 1091.496094 1922.507812 C 1146.1875 1923.589844 1200.609375 1928.046875 1254.761719 1935.472656 C 1304.324219 1936.824219 1352.9375 1922.78125 1393.988281 1895.09375 C 1438.417969 1942.765625 1492.300781 1980.304688 1552.121094 2005.691406 C 1619.773438 2034.59375 1691.078125 2054.304688 1764 2064.164062 C 1780.203125 2065.109375 1796.273438 2069.027344 1811.128906 2075.375 C 1852.992188 2092.390625 1883.238281 2129.527344 1891.207031 2173.957031 C 1893.640625 2201.910156 1880.40625 2211.769531 1872.167969 2242.152344 C 1860.960938 2294.277344 1870.683594 2348.699219 1899.175781 2393.667969 C 1913.761719 2416.761719 1932.800781 2436.476562 1955.351562 2451.601562 C 1992.085938 2476.988281 2022.0625 2511.019531 2042.589844 2550.585938 C 2052.582031 2569.761719 2065.679688 2587.046875 2081.480469 2601.632812 C 2131.847656 2647.816406 2182.761719 2640.796875 2208.6875 2687.789062 L 2208.6875 2687.925781 C 2223.273438 2720.335938 2224.488281 2757.203125 2212.335938 2790.691406 C 2189.511719 2867.9375 2126.582031 2877.121094 2082.292969 2959.898438 C 2061.628906 2998.65625 2078.105469 3025.527344 2051.503906 3062.9375 C 2031.246094 3091.429688 2016.527344 3090.753906 1995.863281 3118.035156 C 1964.941406 3158.953125 1950.085938 3224.3125 1971.285156 3245.242188 C 2009.910156 3283.597656 2150.621094 3232.414062 2154.941406 3181.097656 C 2157.375 3151.117188 2111.59375 3131.132812 2118.480469 3096.96875 C 2121.992188 3079.683594 2139.007812 3078.332031 2156.429688 3056.996094 L 2156.429688 3057.132812 C 2173.039062 3035.390625 2182.085938 3008.921875 2182.355469 2981.507812 C 2286.609375 2820 2337.519531 2763.820312 2363.988281 2747.617188 L 2363.851562 2747.617188 C 2377.085938 2740.054688 2387.753906 2728.847656 2394.640625 2715.34375 C 2404.5 2696.304688 2404.90625 2673.753906 2395.453125 2654.574219 C 2384.109375 2635.265625 2368.984375 2642.015625 2346.160156 2620.679688 C 2326.851562 2603.125 2315.640625 2578.277344 2315.371094 2552.214844 C 2316.992188 2533.984375 2324.417969 2516.835938 2336.4375 2503.191406 C 2384.917969 2440.9375 2386.941406 2326.558594 2387.753906 2283.613281 C 2388.292969 2210.421875 2371.144531 2138.042969 2337.789062 2072.8125 C 2335.765625 2068.628906 2336.304688 2063.765625 2339.273438 2060.253906 C 2342.382812 2056.746094 2347.109375 2055.527344 2351.429688 2057.015625 C 2378.4375 2066.738281 2407.875 2067.144531 2434.886719 2057.960938 C 2468.644531 2043.78125 2495.652344 2017.445312 2510.777344 1984.09375 C 2527.660156 1949.386719 2518.339844 1933.589844 2537.515625 1913.332031 C 2558.71875 1892.128906 2589.507812 1883.621094 2618.542969 1890.777344 C 2677.824219 1906.578125 2686.332031 1990.304688 2687.28125 2000.566406 C 2688.089844 2009.210938 2693.625 2072.953125 2655.410156 2101.035156 C 2630.425781 2119.402344 2611.65625 2104.414062 2578.433594 2117.511719 L 2578.570312 2117.511719 C 2531.171875 2140.738281 2500.246094 2187.871094 2497.542969 2240.535156 C 2492.546875 2320.34375 2560.605469 2385.433594 2627.855469 2404.609375 C 2686.328125 2421.355469 2766.949219 2409.605469 2793.011719 2369.769531 C 2798.140625 2361.800781 2805.164062 2346.945312 2820.695312 2342.085938 C 2837.710938 2337.359375 2855.9375 2343.4375 2866.875 2357.480469 C 2882.40625 2380.574219 2862.824219 2420.8125 2843.246094 2439.585938 C 2831.902344 2450.660156 2819.882812 2460.785156 2807.054688 2469.835938 C 2789.226562 2484.6875 2780.179688 2507.648438 2783.148438 2530.601562 C 2789.496094 2563.957031 2828.792969 2577.597656 2830.820312 2578.273438 L 2830.953125 2578.40625 C 2821.367188 2566.386719 2816.234375 2551.398438 2816.234375 2536.003906 C 2817.992188 2494.277344 2878.488281 2475.773438 2889.832031 2470.914062 C 2904.820312 2465.511719 2918.597656 2457.542969 2930.886719 2447.550781 C 2949.25 2429.996094 2959.785156 2405.960938 2960.1875 2380.570312 C 2962.621094 2345.867188 2950.601562 2311.699219 2927.105469 2286.042969 C 2886.050781 2252.414062 2828.523438 2247.417969 2782.339844 2273.617188 C 2773.15625 2278.34375 2762.355469 2279.019531 2752.628906 2275.371094 C 2742.90625 2271.726562 2735.074219 2264.164062 2731.292969 2254.578125 L 2730.890625 2253.765625 L 2730.890625 2253.632812 C 2726.164062 2242.019531 2724.273438 2229.460938 2725.21875 2217.035156 L 2725.226562 2217.039062 " fill-opacity="1" fill-rule="nonzero"/></g><path fill="#ffffff" d="M 1312.8125 1420.433594 C 1333.609375 1351.832031 1381.414062 1294.574219 1445.152344 1261.894531 C 1426.519531 1241.371094 1413.285156 1216.523438 1406.664062 1189.511719 C 1399.644531 1159.261719 1407.746094 1151.160156 1399.777344 1124.152344 C 1389.785156 1089.179688 1364.667969 1060.410156 1331.3125 1045.695312 C 1310.652344 1038.941406 1288.636719 1037.996094 1267.4375 1042.589844 C 1227.191406 1047.585938 1166.15625 1036.78125 1078.105469 963.320312 L 1078.242188 963.320312 C 1058.121094 955.351562 1035.839844 954.269531 1015.042969 960.347656 C 982.769531 968.585938 948.199219 940.765625 913.492188 929.558594 C 863.664062 913.488281 799.246094 927.535156 791.144531 950.355469 C 777.777344 987.761719 849.617188 1082.828125 920.378906 1071.21875 L 920.515625 1071.082031 C 943.335938 1066.222656 963.59375 1052.988281 977.367188 1034.214844 L 1013.558594 1042.722656 L 1013.558594 1042.589844 C 1014.636719 1053.933594 1019.230469 1064.734375 1026.65625 1073.378906 C 1045.832031 1094.847656 1082.292969 1083.777344 1113.621094 1083.371094 C 1159.671875 1084.449219 1203.832031 1101.332031 1238.941406 1131.039062 C 1251.902344 1156.5625 1272.023438 1177.628906 1296.738281 1191.941406 C 1288.5 1268.375 1294.039062 1345.753906 1312.808594 1420.433594 L 1312.8125 1420.433594 " fill-opacity="1" fill-rule="nonzero"/><path fill="#ffffff" d="M 1762.921875 2079.554688 C 1787.90625 2084.820312 1811.128906 2096.027344 1830.710938 2112.367188 C 1851.371094 2126.277344 1865.550781 2148.15625 1869.601562 2172.867188 C 1869.332031 2187.585938 1865.820312 2202.171875 1859.339844 2215.40625 C 1851.238281 2240.386719 1844.351562 2265.773438 1838.949219 2291.433594 C 1833.816406 2317.632812 1841.246094 2358.546875 1900.796875 2421.476562 L 1900.664062 2421.34375 C 1868.929688 2426.070312 1836.519531 2423.234375 1806 2412.96875 C 1807.621094 2428.5 1805.054688 2444.164062 1798.300781 2458.34375 C 1785.609375 2484.269531 1765.082031 2487.78125 1757.519531 2507.632812 C 1748.199219 2531.941406 1777.503906 2546.253906 1776.019531 2574.613281 C 1775.210938 2590.414062 1765.488281 2612.152344 1725.515625 2636.734375 L 1481.902344 2705.46875 L 1481.902344 2705.335938 C 1476.5 2723.429688 1465.5625 2739.367188 1450.570312 2750.980469 C 1424.238281 2770.019531 1401.144531 2759.484375 1387.507812 2775.554688 C 1370.222656 2795.949219 1396.421875 2825.117188 1391.558594 2862.792969 C 1383.1875 2927.609375 1286.226562 2988.246094 1247.878906 2965.828125 C 1216.816406 2947.734375 1215.871094 2870.085938 1246.796875 2825.789062 C 1261.109375 2805.265625 1270.5625 2808.640625 1289.335938 2783.792969 C 1320.394531 2742.742188 1307.835938 2716.542969 1329.304688 2685.347656 C 1337.136719 2674.140625 1350.238281 2660.90625 1447.738281 2632.546875 C 1563.335938 2598.921875 1576.703125 2608.242188 1596.957031 2585.417969 C 1633.285156 2544.230469 1629.773438 2469.550781 1607.222656 2420.804688 L 1607.492188 2420.667969 C 1602.496094 2410.40625 1596.554688 2400.546875 1589.800781 2391.363281 C 1577.378906 2372.460938 1499.726562 2254.703125 1545.234375 2163.550781 C 1584.9375 2084.011719 1698.375 2065.105469 1762.921875 2079.554688 " fill-opacity="1" fill-rule="nonzero"/><path fill="#ffffff" d="M 1733.746094 685.257812 C 1774.929688 664.191406 1822.0625 657.304688 1867.570312 665.539062 C 1873.648438 658.652344 1878.507812 650.6875 1881.882812 642.179688 C 1889.851562 619.625 1888.90625 595.046875 1879.183594 573.308594 L 1774.527344 586 C 1780.066406 579.25 1783.574219 571.144531 1784.519531 562.503906 C 1784.519531 541.574219 1772.367188 522.394531 1753.328125 513.617188 C 1714.03125 503.21875 1672.976562 522.125 1655.289062 558.722656 C 1633.546875 602.203125 1648.671875 655.140625 1690.261719 680.664062 C 1703.902344 686.605469 1719.164062 688.222656 1733.746094 685.253906 L 1733.746094 685.257812 " fill-opacity="1" fill-rule="nonzero"/><path fill="#ffffff" d="M 2006.125 1672 C 2017.0625 1685.101562 2030.296875 1696.175781 2045.285156 1704.277344 C 2085.394531 1673.621094 2117.128906 1633.378906 2137.65625 1587.332031 C 2151.292969 1556.40625 2159.667969 1523.320312 2162.234375 1489.699219 C 2159.667969 1509.144531 2165.203125 1528.992188 2177.628906 1544.253906 C 2185.863281 1553.707031 2196.535156 1560.59375 2208.417969 1564.238281 C 2271.210938 1486.996094 2282.6875 1426.363281 2279.179688 1382.609375 L 2279.179688 1382.746094 C 2274.183594 1355.464844 2270.671875 1327.917969 2268.511719 1300.371094 C 2271.480469 1299.558594 2276.207031 1325.621094 2298.488281 1339.664062 L 2298.488281 1339.53125 C 2306.457031 1344.390625 2315.371094 1347.363281 2324.554688 1348.039062 C 2356.019531 1291.050781 2363.984375 1223.9375 2346.96875 1161.144531 C 2338.460938 1133.59375 2324.824219 1107.800781 2306.726562 1085.386719 C 2324.011719 1103.75 2346.5625 1116.175781 2371.277344 1121.308594 C 2393.421875 1039.605469 2380.324219 992.207031 2361.011719 963.308594 C 2336.4375 926.578125 2288.496094 899.707031 2291.199219 895.65625 C 2292.953125 893.226562 2309.292969 905.917969 2332.25 903.894531 L 2332.386719 903.894531 C 2342.648438 902.8125 2352.507812 899.300781 2361.015625 893.628906 C 2329.683594 812.742188 2262.566406 751.027344 2179.519531 726.316406 C 2231.105469 732.257812 2245.554688 726.316406 2248.253906 719.160156 C 2255.683594 699.578125 2183.167969 651.234375 2122.128906 624.765625 L 2121.992188 624.765625 C 2079.320312 606.398438 2033.945312 595.054688 1987.628906 591.003906 C 1995.460938 614.769531 1997.757812 640.023438 1994.515625 664.871094 C 1992.488281 673.378906 1989.65625 681.75 1986.277344 689.71875 C 1983.308594 696.199219 1979.929688 702.410156 1976.015625 708.355469 C 2014.097656 725.367188 2048.9375 748.867188 2078.917969 777.628906 C 2123.75 821.921875 2156.835938 876.613281 2175.339844 936.707031 C 2200.320312 1012.195312 2206.53125 1092.679688 2193.839844 1171.136719 C 2174.394531 1297.398438 2118.082031 1415.023438 2032.195312 1509.6875 C 2024.226562 1519.003906 2016.664062 1527.378906 2009.914062 1534.535156 L 2010.046875 1534.398438 C 1997.757812 1547.5 1989.519531 1563.839844 1986.144531 1581.394531 L 1984.792969 1588.28125 C 1979.121094 1617.722656 1986.683594 1648.105469 2005.589844 1671.332031 L 2006.125 1672 " fill-opacity="1" fill-rule="nonzero"/></svg>